<?xml version="1.0" encoding="UTF-8"?>
<svg id="Layer_2" data-name="Layer 2" xmlns="http://www.w3.org/2000/svg" width="206.58" height="131.91" xmlns:xlink="http://www.w3.org/1999/xlink" viewBox="0 0 206.58 131.91">
  <defs>
    <style>
      .cls-1 {
        fill: url(#linear-gradient);
        stroke-width: 0px;
      }
    </style>
    <linearGradient id="linear-gradient" x1="0" y1="65.96" x2="206.58" y2="65.96" gradientUnits="userSpaceOnUse">
      <stop offset=".03" stop-color="#fff" stop-opacity="0"/>
      <stop offset=".72" stop-color="#fff" stop-opacity=".85"/>
    </linearGradient>
  </defs>
  <g id="Layer_1-2" data-name="Layer 1">
    <path class="cls-1" d="M164.16,36.13v88.14c0,1.27,1.03,2.21,2.28,2.04,22.88-3.16,40.13-22.75,40.14-46.07,0-23.35-17.28-42.96-40.19-46.1-1.22-.17-2.22.75-2.22,1.99h0ZM153.55,34.18c-22.83,3.2-40.03,22.76-40.04,46.06,0,5.94,1.15,11.82,3.36,17.33.51,1.27,1.95,1.72,3.14,1.04l33.93-19.59c1.23-.71,1.99-2.02,1.99-3.44v-39.27c0-1.32-1.07-2.31-2.38-2.12h0ZM154.46,88.22l-30.63,17.68c-1.02.59-1.31,1.86-.58,2.79,7.43,9.61,18.33,15.93,30.36,17.62,1.28.18,2.32-.78,2.32-2.07v-35.17c0-.54-.44-.98-.98-.98-.17,0-.34.05-.49.13h0ZM116.85,0c-3.82,0-6.89,3.07-6.89,6.89v51.41c0,.45.14.47.32.07,3.07-7,7.59-13.28,13.25-18.42.12-.11.21-.32.21-.48V6.89c0-3.82-3.07-6.89-6.89-6.89h0ZM144.77,2.78c-3.82,0-6.89,3.07-6.89,6.89v20.53c0,.22.17.33.37.24,4.21-1.85,8.63-3.16,13.16-3.9.14-.02.25-.15.25-.29V9.67c0-3.82-3.07-6.89-6.89-6.89h0ZM61.02,23.88c-3.82,0-6.89,3.07-6.89,6.89v53.24c0,3.82,3.07,6.89,6.89,6.89s6.89-3.07,6.89-6.89V30.77c0-3.82-3.07-6.89-6.89-6.89h0ZM88.94,33.71c-3.82,0-6.89,3.07-6.89,6.89v43.42c0,3.82,3.07,6.89,6.89,6.89s6.89-3.07,6.89-6.89v-43.42c0-3.82-3.07-6.89-6.89-6.89ZM33.1,55.25c-3.82,0-6.89,3.07-6.89,6.89v21.88c0,3.82,3.07,6.89,6.89,6.89s6.89-3.07,6.89-6.89v-21.88c0-3.82-3.07-6.89-6.89-6.89ZM6.8,83.64c-2.3.03-4.44,1.21-5.69,3.14-2.07,3.19-1.16,7.46,2.03,9.53,0,0,0,0,0,0,2.12,1.37,4.82,1.48,7.03.27l14.41,10.91c-.63,2.81.55,5.71,2.96,7.29,3.19,2.07,7.46,1.16,9.53-2.03.4-.64.69-1.33.87-2.06l20.75-3.76c.51.74,1.16,1.37,1.92,1.86,3.19,2.07,7.46,1.16,9.53-2.03.09-.15.17-.31.24-.47l20.13,1.42c.51,1.39,1.45,2.57,2.68,3.38,1.83,1.18,4.12,1.42,6.16.65l10.84,10.84c-1.14,3.03-.02,6.44,2.69,8.2,3.19,2.07,7.46,1.16,9.53-2.03,2.07-3.19,1.16-7.46-2.03-9.53-1.83-1.18-4.12-1.42-6.15-.65l-10.83-10.84c1.14-3.03.02-6.44-2.7-8.21-3.19-2.07-7.46-1.16-9.53,2.03-.09.15-.17.31-.24.47l-20.13-1.42c-.51-1.39-1.45-2.57-2.68-3.38-3.19-2.07-7.46-1.16-9.53,2.03-.4.63-.69,1.33-.87,2.06l-20.76,3.76c-.51-.74-1.16-1.37-1.91-1.86-2.11-1.35-4.8-1.45-7.01-.25l-14.44-10.93c.63-2.81-.55-5.71-2.96-7.28-1.14-.74-2.48-1.13-3.84-1.11h0Z"/>
  </g>
</svg>